<svg width="47" height="48" viewBox="0 0 47 48" fill="none" xmlns="http://www.w3.org/2000/svg">
<g filter="url(#filter0_d)">
<path d="M42.037 32.1881H33.7503C33.4851 32.1881 33.2688 32.4062 33.2688 32.6735C33.2688 32.9408 33.4851 33.1588 33.7503 33.1588H42.037C42.3022 33.1588 42.5185 32.9408 42.5185 32.6735C42.5185 32.4062 42.3022 32.1881 42.037 32.1881Z" fill="white"/>
<path d="M42.037 38.34H32.7459C32.4807 38.34 32.2644 38.558 32.2644 38.8253C32.2644 39.0926 32.4807 39.3107 32.7459 39.3107H42.037C42.3022 39.3107 42.5185 39.0926 42.5185 38.8253C42.5185 38.558 42.3022 38.34 42.037 38.34Z" fill="white"/>
<path d="M4.48148 35.6916H11.9743C12.2395 35.6916 12.4558 35.4736 12.4558 35.2063C12.4558 34.939 12.2395 34.721 11.9743 34.721H4.48148C4.21629 34.721 4 34.939 4 35.2063C4 35.4755 4.21629 35.6916 4.48148 35.6916Z" fill="white"/>
<path fill-rule="evenodd" clip-rule="evenodd" d="M7.74481 0.534672C7.93098 0.441782 8.15292 0.479695 8.29962 0.627566L8.29986 0.627794C8.44468 0.775641 8.48229 1.00124 8.38825 1.18892C8.08921 1.79178 7.93875 2.43443 7.93875 3.09985C7.93875 5.47712 9.86843 7.41271 12.2382 7.41271C12.9021 7.41271 13.5435 7.25915 14.1453 6.95962C14.3315 6.86673 14.5534 6.90464 14.7001 7.05252C14.8468 7.20036 14.8826 7.42596 14.7904 7.61174C13.8933 9.426 12.0877 10.5521 10.079 10.5521C7.1768 10.5521 4.81644 8.18029 4.81644 5.2665C4.81644 3.24749 5.93925 1.43518 7.74481 0.534672ZM13.1276 8.30709C12.8342 8.35827 12.5389 8.38292 12.238 8.38292L12.2381 8.38309C9.33594 8.38309 6.97557 6.01324 6.97745 3.09945C6.97745 2.79613 7.0019 2.49847 7.05268 2.20463C6.24772 2.99894 5.7794 4.0909 5.7794 5.26629C5.7794 7.64545 7.70908 9.58104 10.0789 9.58104C11.2506 9.58104 12.3358 9.11281 13.1276 8.30709Z" fill="white"/>
<path fill-rule="evenodd" clip-rule="evenodd" d="M42.039 24.41H42.0371C41.7719 24.41 41.5575 24.6261 41.5556 24.8934L41.5443 27.4849L23.677 0.92356C23.4983 0.656258 23.0601 0.656258 22.8796 0.92356L5.02529 27.466L5.03658 24.7152C5.03846 24.4479 4.82217 24.228 4.55698 24.228H4.5551C4.28991 24.228 4.0755 24.4441 4.07362 24.7114L4.05669 29.0527C4.05481 29.2669 4.19399 29.4546 4.39523 29.5191C4.44225 29.5342 4.48927 29.5399 4.53817 29.5399C4.69428 29.5399 4.84474 29.4622 4.9369 29.3276L7.74677 25.1512V29.0565C7.74677 29.3238 7.96306 29.5418 8.22826 29.5418H18.9523C19.4996 31.3314 21.1603 32.6357 23.1201 32.6357C23.1266 32.6357 23.1327 32.6352 23.1388 32.6348L23.1389 32.6348C23.145 32.6343 23.1511 32.6338 23.1577 32.6338C23.1605 32.6338 23.1638 32.6343 23.1671 32.6348L23.1671 32.6348L23.1672 32.6348C23.1704 32.6352 23.1737 32.6357 23.1765 32.6357C23.1825 32.6357 23.1884 32.6351 23.1944 32.6344L23.2047 32.6329C23.2141 32.6314 23.2235 32.63 23.2329 32.63C25.1419 32.5807 26.75 31.2954 27.2861 29.5418H38.3303C38.5955 29.5418 38.8118 29.3238 38.8118 29.0565V25.1512L41.6216 29.3276C41.7401 29.5039 41.9583 29.5816 42.1595 29.5191C42.3608 29.4565 42.5 29.2688 42.5 29.0565L42.5188 24.8972C42.5207 24.628 42.3062 24.4119 42.0392 24.41L42.039 24.41ZM23.2328 31.6597L23.2274 31.66C23.2031 31.6618 23.1803 31.6634 23.1575 31.6634C22.3225 31.6521 21.6454 30.9696 21.6454 30.1317C21.6454 29.58 22.4504 28.3099 23.1764 27.3525C23.9023 28.3099 24.7073 29.58 24.7073 30.1317C24.7073 30.9563 24.0509 31.6293 23.2328 31.6597L23.2328 31.6597ZM25.6684 30.1298C25.6684 30.2738 25.6496 30.4103 25.627 30.5468L25.627 30.5469C26.1781 29.9402 26.5166 29.1383 26.5129 28.2568C26.5129 26.8027 24.3236 23.7088 23.1161 22.1695C21.9106 23.7088 19.7194 26.8046 19.7194 28.2568C19.7194 29.2122 20.1163 30.0767 20.7501 30.6966C20.7087 30.5127 20.6805 30.325 20.6805 30.1298C20.6805 28.9013 22.4503 26.6927 22.8039 26.2624C22.9864 26.0406 23.3625 26.0406 23.545 26.2624C23.9005 26.6927 25.6684 28.9013 25.6684 30.1298ZM23.4905 21.089C23.308 20.8672 22.9319 20.8672 22.7494 21.089C22.3413 21.5838 18.7602 25.997 18.7602 28.2571C18.7602 28.3332 18.7651 28.4083 18.7699 28.4832V28.4832C18.7718 28.5128 18.7737 28.5423 18.7753 28.5718H13.9268V25.3717C14.555 24.8599 16.637 23.0854 18.7454 20.4521C20.457 18.3156 22.4111 15.2956 23.2969 11.8528C24.1828 15.2974 26.1369 18.3152 27.8484 20.4521C29.9568 23.0853 32.0388 24.8597 32.6671 25.3717V28.5718H27.4628C27.4703 28.4675 27.4778 28.3633 27.4778 28.2571C27.4797 25.9974 23.8987 21.584 23.4906 21.089H23.4905ZM33.6278 28.5716H37.8482L37.8507 23.7203L23.2801 2.06115L8.70954 23.7203V28.5716H12.962V25.1365C12.962 24.9848 13.0316 24.8426 13.1501 24.7516L13.1504 24.7514C13.2666 24.6596 22.8134 17.1172 22.8134 8.19022C22.8134 7.92291 23.0297 7.7049 23.2949 7.7049C23.5601 7.7049 23.7764 7.92291 23.7764 8.19022C23.7764 17.1141 33.3165 24.6542 33.4392 24.7513L33.4397 24.7516C33.5582 24.8445 33.6278 24.9867 33.6278 25.1365V28.5716Z" fill="white"/>
<path fill-rule="evenodd" clip-rule="evenodd" d="M30.596 34.433C30.6393 34.5543 30.6299 34.6908 30.5735 34.8064L30.5738 34.8064C30.5155 34.924 30.4158 35.0131 30.2917 35.0548L28.5106 35.6482L30.2221 36.1354C30.3462 36.1714 30.4515 36.2548 30.5136 36.3686C30.5757 36.4823 30.5888 36.615 30.5531 36.7401L29.9381 38.8293C29.8761 39.0397 29.6861 39.1762 29.4773 39.1762C29.4341 39.1762 29.3889 39.1686 29.3457 39.1572L23.2179 37.4112L17.5941 39.2861C17.5452 39.3032 17.4945 39.3108 17.4437 39.3108C17.2443 39.3108 17.0581 39.1857 16.9923 38.9847L16.2832 36.924C16.24 36.8027 16.2494 36.6662 16.3058 36.5506C16.3622 36.433 16.4638 36.3458 16.586 36.3041L18.0718 35.8093L16.287 35.3012C16.1628 35.2652 16.0575 35.1818 15.9955 35.0681C15.9334 34.9543 15.9202 34.8216 15.956 34.6965L16.571 32.6074C16.6462 32.3514 16.9095 32.2055 17.1634 32.2775L23.3644 34.0443L29.2813 32.0708C29.5315 31.9874 29.8004 32.122 29.8869 32.3723L30.596 34.433ZM17.3592 33.341L17.0169 34.4993L19.7026 35.2652L21.7339 34.5884L17.3592 33.341ZM29.4901 36.9354L29.1478 38.0937L24.8483 36.8671L26.8796 36.1904L29.4901 36.9354ZM17.3499 37.0718L17.7429 38.215L29.5262 34.287L29.1331 33.1438L17.3499 37.0718Z" fill="white"/>
</g>
<defs>
<filter id="filter0_d" x="0" y="0.484222" width="46.5188" height="46.8266" filterUnits="userSpaceOnUse" color-interpolation-filters="sRGB">
<feFlood flood-opacity="0" result="BackgroundImageFix"/>
<feColorMatrix in="SourceAlpha" type="matrix" values="0 0 0 0 0 0 0 0 0 0 0 0 0 0 0 0 0 0 127 0"/>
<feOffset dy="4"/>
<feGaussianBlur stdDeviation="2"/>
<feColorMatrix type="matrix" values="0 0 0 0 0 0 0 0 0 0 0 0 0 0 0 0 0 0 0.25 0"/>
<feBlend mode="normal" in2="BackgroundImageFix" result="effect1_dropShadow"/>
<feBlend mode="normal" in="SourceGraphic" in2="effect1_dropShadow" result="shape"/>
</filter>
</defs>
</svg>
